# xmcd
#
# Track frame offsets: 
#        150
#        19965
#        37399
#        71352
#        77030
#        87229
#        116320
#        126901
#        134951
#        147047
#        155114
#        174747
#        192817
#        201579
#        219804
#        237560
#
# Disc length: 3348 seconds
#
# Revision: 0
# Processed by: cddbd v1.5.1PL2 Copyright (c) Steve Scherf et al.
# Submitted via: ExactAudioCopy v0.95a5
#
DISCID=f40d1210
DTITLE=George Merritt - Pocket Change
DYEAR=1999
DGENRE=Country
TTITLE0=Sons Of The San Joaquin
TTITLE1=Arkansas Traveler, Fisher's Hornpipe and Soldier's Joy
TTITLE2=Highland Home Longing
TTITLE3=Shortnin' Bread
TTITLE4=Amazing Grace
TTITLE5=The Old Country
TTITLE6=Ragtime Annie
TTITLE7=Irish Waterwoman
TTITLE8=Foster Baker Banjo Blues
TTITLE9=Ozark Scotty
TTITLE10=Bill Cheatam
TTITLE11=Turkey In The Straw, Old Joe Clark and Cotton-Eyed Joe
TTITLE12=Ranchman's Rag
TTITLE13=Blackberry Blossom and New Blackberry Blossom
TTITLE14=Cluck Ol' Hen
TTITLE15=Texas Sunset
EXTD=
EXTT0=
EXTT1=
EXTT2=
EXTT3=
EXTT4=
EXTT5=
EXTT6=
EXTT7=
EXTT8=
EXTT9=
EXTT10=
EXTT11=
EXTT12=
EXTT13=
EXTT14=
EXTT15=
PLAYORDER=
